<svg xmlns="http://www.w3.org/2000/svg" viewBox="0 0 463.51 482.16"><defs><style>.cls-1{fill:#fff;}.cls-2{fill:#479951;}.cls-3{fill:#f6c358;}.cls-4{fill:#fcd462;}.cls-5{fill:#57bb63;}.cls-6{fill:#5b2b02;}.cls-7{fill:#44c4a1;}.cls-8{fill:#3ea69b;}.cls-9{fill:#9fbd91;}.cls-10{fill:#91b483;}.cls-11{fill:#b2c8a5;}.cls-12{fill:#8fcca8;}.cls-13{fill:#a4c093;}.cls-14{fill:#aedec9;}.cls-15{fill:#e5a135;}.cls-16{fill:#a37527;}.cls-17{fill:#f0c380;}.cls-18{fill:#f0c37f;}.cls-19{fill:#d6a25a;}.cls-20{fill:#efc37f;}.cls-21{fill:#d6a25b;}.cls-22{fill:#ecbe7a;}.cls-23{fill:#703d11;}.cls-24{fill:#d19c58;}.cls-25{fill:#87521f;}.cls-26{fill:#f7e6ca;}.cls-27{fill:#5c2b03;}.cls-28{fill:#fbfcf8;}.cls-29{fill:#fbfaf5;}.cls-30{fill:#f5e8cc;}.cls-31{fill:#f7eeda;}.cls-32{fill:#8d5828;}</style></defs><g id="Layer_2" data-name="Layer 2"><g id="Layer_1-2" data-name="Layer 1"><path class="cls-1" d="M1.08,136.36h0L0,136.75C.3,136.4.54,135.86,1.08,136.36Z"/><path class="cls-1" d="M143.31,168.71l-16,7.69q-36.9,17.76-73.8,35.5C48.23,214.43,43,217,37.76,219.56c-.57.28-1.14.58-1.73.82-2.13.88-3.26.52-4.32-1.54-1.91-3.69-3.72-7.42-5.61-11.12-2.18-4.28-3.52-8.9-5.33-13.33-1.9-4.66-3.93-9.26-5.88-13.9-.74-1.76-1.59-3.5-.56-5.49.36-.68-.12-1.39-.38-2.06-4.06-10.75-8.12-21.5-12.57-32.1-.62-1.47-1.33-2.91-.27-4.45l0,0a14.73,14.73,0,0,0,1.44,5.73c4.09,9.73,7.78,19.62,11.54,29.47a7.75,7.75,0,0,1,.57,4.68,5.1,5.1,0,0,0,.52,3.27c5.62,12.45,9.64,25.58,16.31,37.58,1.76,3.17,2.62,3.58,5.86,1.95,16.72-8.39,33.68-16.3,50.51-24.47s33.88-16.24,50.77-24.46C141.11,169,142.38,168.39,143.31,168.71Z"/><path class="cls-1" d="M269.34,1h-.14a.83.83,0,0,1,.09-1C269.31.34,269.32.67,269.34,1Z"/><path class="cls-1" d="M463,325.54a182.52,182.52,0,0,1-2.76,20.82,173.76,173.76,0,0,1-6.58,24.69,165.56,165.56,0,0,1-12.33,27.52A160.86,160.86,0,0,1,429,417.05a158.25,158.25,0,0,1-17.43,19.33c-2,1.85-4,3.65-6,5.48a1.24,1.24,0,0,1-1.42,1l-2.84,2.45a1.41,1.41,0,0,1-1.41,1c-2.58,1.84-5.1,3.79-7.76,5.52q-5.47,3.56-11.25,6.65a153.12,153.12,0,0,1-16.23,7.41,126.71,126.71,0,0,1-16.11,5A150.47,150.47,0,0,1,331.67,474a124.28,124.28,0,0,1-13.35.85,90.43,90.43,0,0,1-16.18-.8c-1.09.22-2.21.35-3.27.67a167.66,167.66,0,0,1-29.5,6.12,171,171,0,0,1-24.87,1.24,181.12,181.12,0,0,1-54.95-9.77,161.13,161.13,0,0,1-51.46-29.09A153.32,153.32,0,0,1,97,389.08a157.38,157.38,0,0,1-12.32-41.42,153.52,153.52,0,0,1-1.72-17.14c-.16-3.92-.19-7.83-.3-11.74-.16-5.59,1.12-10.95,2.46-16.28A164.54,164.54,0,0,1,93.37,277a29.8,29.8,0,0,1,3-6,1.14,1.14,0,0,1,.11-.4,1.38,1.38,0,0,1-.47-1.27l.06-8.32a64.64,64.64,0,0,0-3.28-13.21,64.62,64.62,0,0,0-13.54-21c-1.52-1.6-1.55-1.6-.45-3.36a38.47,38.47,0,0,1,9.81-11A9.4,9.4,0,0,1,91.1,211a18.38,18.38,0,0,1,15.41-1.86c1,.29,1.58.6,1.19,2-1,3.34-.71,6.82-.47,10.24,1,14.8,3.07,29.49,5.45,44.14.27,1.65.42,3.32.63,5q2.3,5.88,4.58,11.75a19.05,19.05,0,0,0,3.49,6.17c3.3,3.34,6.52,6.76,9.92,10a207.28,207.28,0,0,0,29.95,24c-.23-3.42-.55-6.83-.67-10.25-.14-4.21-.24-8.43-.14-12.64s.35-8.58.73-12.85c.48-5.24,1.22-10.43,2.12-15.61a166.82,166.82,0,0,1,6.11-24c.88-2.64,1.87-5.24,2.83-7.86a4.51,4.51,0,0,0,.5-2.06c-3.3-7.95-6.53-15.93-9.92-23.84q-8.66-20.25-17.49-40.44a16.52,16.52,0,0,0-2-4.15c1,.31,1.55,1.59,2.69,4.17,9,20.49,18,41,26.31,61.76.21.52.43,1,.61,1.56h0a5.08,5.08,0,0,1,.17.51c0,.21.1.42.14.64a5.68,5.68,0,0,1-.65,2.77A170.12,170.12,0,0,0,162.11,284a160.89,160.89,0,0,0-.75,29.61,52.59,52.59,0,0,1,.34,8.33,1.94,1.94,0,0,1-.43.46h0c-.83.6-1.52-.4-2.14-.78a162.72,162.72,0,0,1-15.35-11.41,230.36,230.36,0,0,1-20.52-19c-.77-.8-1.46-1.64-2.16-2.49a.86.86,0,0,1-.07-.1l-.11-.13c-2.3-2-3.08-4.94-4.23-7.61a109.35,109.35,0,0,1-3.84-10.43l-.09-.27s0,0,0-.06c-1.94-11.79-3.76-23.6-5-35.49-.57-5.55-1.21-11.1-1.39-16.68a21.93,21.93,0,0,1,.36-5.72c.39-1.69-.31-2.49-2-2.87a18.31,18.31,0,0,0-13,1.93l-.23.12a4.36,4.36,0,0,0-.42.23c-5.2,2.79-8.71,7.29-11.83,12.17-.73,1.13-.18,1.9.58,2.73a69.13,69.13,0,0,1,11.82,17.29,54,54,0,0,1,4.9,17.4l0,.22c.1,2.76-.11,5.51.12,8.26,0,.19,0,.37,0,.55,0,0,0,0,0,.07a2.46,2.46,0,0,1,0,.28,1.41,1.41,0,0,1,0,.2,1.23,1.23,0,0,0,0,.2.06.06,0,0,0,0,0,143.14,143.14,0,0,0-6.21,15.06c-3.12,9.5-6.16,19-7.19,29-.53,5.07-.09,10.2.19,15.32a170.14,170.14,0,0,0,2.07,19.27c4.79,28.05,16.16,53.13,34.63,74.82,18,21.15,40.25,36.28,66.27,46a174.18,174.18,0,0,0,43.12,9.94,155.4,155.4,0,0,0,22.72,1.05c15.37-.65,30.57-2.58,45.34-7.15a15.53,15.53,0,0,1,4.68-.95l1.08.12,1.1.12a125.29,125.29,0,0,0,27.17-.41,132.86,132.86,0,0,0,36.06-9.37,150.91,150.91,0,0,0,29.23-16.34c.71-.51,1.43-1,2.17-1.5A8.8,8.8,0,0,0,401,445c1-.82,1.78-1.94,3-2.52a2.9,2.9,0,0,0,.65-.35,4.18,4.18,0,0,0,.85-.88c5.69-5.5,11.66-10.72,16.72-16.83a191.38,191.38,0,0,0,16.68-23.1,164.17,164.17,0,0,0,15.7-35.15,170.31,170.31,0,0,0,7.13-33.48A160.47,160.47,0,0,0,463,309.52a210,210,0,0,0-2.29-26.45,194.55,194.55,0,0,0-10.71-39,171.89,171.89,0,0,0-13.37-26.77,169.84,169.84,0,0,0-25.65-32.46,4.79,4.79,0,0,0-1-1,.47.47,0,0,0-.12-.09,3.31,3.31,0,0,1-.5-.41,2.09,2.09,0,0,1-.2-.22A7.69,7.69,0,0,1,407.8,181a1.41,1.41,0,0,1-.06-.22,3.11,3.11,0,0,1-.06-.44,2.77,2.77,0,0,1,.11-.64c.16-.54.3-1.08.5-1.6a46,46,0,0,1,7.08-13,12.69,12.69,0,0,1,3.74-3,3,3,0,0,1,3.19.26c1.15.68,1.18,1.8,1,3-.37,2.69-1.13,5.33-1.35,8a13.45,13.45,0,0,0,4,11.35,10.34,10.34,0,0,0,9.9,2.85c3.62-.72,6.71-2.52,9.75-4.46l.79-.41.43-.28a2.22,2.22,0,0,0,.4-.41c2.65-2.16,5.08-4.57,7.55-6.93a9.58,9.58,0,0,0,2.31-3,3.73,3.73,0,0,0-1.36-4.43,3,3,0,0,0-4.1.49c-2.1,1.93-3.85,4.24-6.23,5.87a3.81,3.81,0,0,0-.88.44,2.46,2.46,0,0,0-.57.45,3.16,3.16,0,0,0-.51.58,4.35,4.35,0,0,1-1.61,1.06l-.29.11h0a2.32,2.32,0,0,0-.48.34,6.83,6.83,0,0,0-.72.79,14,14,0,0,1-4.71,2.3c-3.78,1.25-7-1.08-7-5.06,0-3,.9-5.84,1.27-8.77.76-6-1.54-10-6.94-11.46a9.78,9.78,0,0,0-8.44,1.55,19.75,19.75,0,0,0-5.36,5.42,59.4,59.4,0,0,0-5.87,11c-1.2,3-1.81,3.32-4.16,1.49l-.42-.34a159.18,159.18,0,0,0-19.17-13.12,140.63,140.63,0,0,0-32.53-13.92,135,135,0,0,0-42.62-5.56,140.56,140.56,0,0,0-32.86,5A146.78,146.78,0,0,0,239,160c-.45.21-.93.37-1.36.6a2.86,2.86,0,0,0-.73.52,53.28,53.28,0,0,1-5.28,3.4,4.6,4.6,0,0,0-1.61,1A162.45,162.45,0,0,0,210.21,182c-.52.51-1,1.13-1.91,1l-.14,0s0,0,0,0c-1.21-1.12-1.55-2.71-2.21-4.12-4.67-10-9.28-20-14.06-29.95-1.52-3.18-1.44-3.52,1.8-5.1q34.19-16.62,68.41-33.19c14.17-6.89,28.37-13.71,42.53-20.61,2.37-1.15,4.86-2.06,7.17-3.34,1.95-1.08,2-1.73.19-3.06a7.43,7.43,0,0,1-2.67-3.31c-4.73-11.92-11.45-22.86-17.08-34.33a5.14,5.14,0,0,1-.76-3.42,6.24,6.24,0,0,0-.79-4.16c-5.09-10.59-9.8-21.35-14.7-32C274.62,3.34,273.4.74,269.87,1c3-1.12,3.72-.81,5.19,2.13,4.3,8.56,7.89,17.45,12,26.11,1.41,2.95,2.83,5.9,4.2,8.87.71,1.52,1.5,3,.6,4.79-.32.63.05,1.22.36,1.8,3.13,6,6.07,12.13,9.52,18,3.06,5.16,5.11,10.82,7.63,16.25.8,1.72,1.41,3.53,3.47,4.34.87.34,1.26,1.39,1.6,2.56-3,1.45-5.95,2.93-8.95,4.38L241.7,121.07l-48.29,23.36a2,2,0,0,1-.22.09c-2.11,1-2.13,1-1.14,3.16l14.8,31.68,1.59,3.44c3-2.75,5.9-5.57,9-8.22A127.3,127.3,0,0,1,229.9,165a1.23,1.23,0,0,1,1.48-.94l5.25-3.36a2,2,0,0,1,1.9-1,66.47,66.47,0,0,1,8.93-5,129.41,129.41,0,0,1,17.43-7.15,151.27,151.27,0,0,1,20.15-5,135.9,135.9,0,0,1,18.32-1.88,139.23,139.23,0,0,1,19.79.73A142.92,142.92,0,0,1,352,147.71a138.45,138.45,0,0,1,21.32,9,159,159,0,0,1,21.81,13.69c2,1.5,3.84,3.32,6.14,4.63.87-.75,1-1.83,1.41-2.73,2.16-4.82,4.45-9.57,8-13.53,2.56-2.85,5.55-4.87,9.66-5,4.3-.09,9.12,3.46,10,7.65.61,3,0,5.87-.51,8.78-.25,1.5-.64,3-.74,4.49-.26,3.78,2.61,6,6.23,4.82a17.31,17.31,0,0,0,4.9-2.4,1.23,1.23,0,0,1,1.45-1l1.43-1a2.15,2.15,0,0,1,1.88-1.48c2-1.94,4.06-3.79,5.92-5.83,1.59-1.74,3.4-1.94,5.06-.93a4.47,4.47,0,0,1,1.58,5.48,7.38,7.38,0,0,1-1.65,2.32,73,73,0,0,1-8.46,7.64c-.15.82-.74,1-1.45,1a22.8,22.8,0,0,1-9.93,4.81c-5.52,1.11-9.45-.83-12.69-5.48a13,13,0,0,1-2-9.34c.34-2.68.9-5.33,1.36-8,.15-.85.57-1.79-.42-2.37a3,3,0,0,0-3.36-.19,14.73,14.73,0,0,0-4.65,4.71,49,49,0,0,0-4.4,8.2c-.4.95-.86,1.88-1.3,2.81a1.72,1.72,0,0,1-.52,1.43c-.21,1.26,1.14,1.79,1.36,2.85l.52.52c.67-.07.91.31,1,.9,2.76,1.94,4.8,4.63,7,7.08a166.73,166.73,0,0,1,17.79,23.37,173.34,173.34,0,0,1,11.63,21.65c2.64,5.87,4.85,11.93,6.91,18A185.83,185.83,0,0,1,462,287.88a180.53,180.53,0,0,1,1.4,18.62A170.35,170.35,0,0,1,463,325.54Z"/><path class="cls-1" d="M1.08,136.36h0L0,136.75C.3,136.4.54,135.86,1.08,136.36Z"/><path class="cls-1" d="M254.86,8.5c4.85-2.44,9.66-4.93,14.48-7.4-.22,1.14-1.27,1.36-2.09,1.77-35.68,18.22-71.57,36-107.41,53.92-9,4.5-18.37,8.38-27,13.45-8.41,4.93-17,9.4-25.77,13.65C76.9,98.55,47,113.74,17,128.66c-4.43,2.21-8.76,4.62-13.21,6.82a4.44,4.44,0,0,1-2.68.86,95,95,0,0,1,9.93-5.25q32.64-16.4,65.33-32.71Q101.27,86,126.17,73.63c.76-.38,1.65-.58,2-1.58.18-.56.85-.69,1.34-.93Q159.94,56,190.41,40.82,222.66,24.71,254.86,8.5Z"/><path class="cls-1" d="M269.2,1a.83.83,0,0,1,.09-1c0,.34,0,.67,0,1Z"/><path class="cls-2" d="M457.55,172.43a7.38,7.38,0,0,1-1.65,2.32,73,73,0,0,1-8.46,7.64c-.43.41-1.09.46-1.45,1a22.8,22.8,0,0,1-9.93,4.81c-5.52,1.11-9.45-.83-12.69-5.48a13,13,0,0,1-2-9.34c.34-2.68.9-5.33,1.36-8,.15-.85.57-1.79-.42-2.37a3,3,0,0,0-3.36-.19,14.73,14.73,0,0,0-4.65,4.71,49,49,0,0,0-4.4,8.2c-.4.95-.86,1.88-1.3,2.81-.6.33-.18,1-.52,1.43l-.27,1c-1.65,6.23-3,12.54-5.07,18.67-1.77,5.36-3.35,10.81-5.6,16-4.92,11.36-9.46,22.9-15.36,33.8q-7.75,14.32-16,28.4c-6.31,10.77-13.1,21.22-19.88,31.68-5.65,8.7-11.69,17.15-17.73,25.6-5.33,7.47-10.77,14.88-16.48,22.08a8.77,8.77,0,0,1-1.85,1.81l-.24.15a5.77,5.77,0,0,1-2.17.82,172.66,172.66,0,0,1-30.16.81c-5.42-.32-10.85-.56-16.25-1.15a15.51,15.51,0,0,1-3.53-.59,2.66,2.66,0,0,1-1.12-.76,1.14,1.14,0,0,1-.15-.23c-.42-.8.13-1.75.71-2.69,4.65-7.64,9.11-15.4,13.77-23,5.12-8.4,10.51-16.62,16-24.79,7.78-11.61,15.8-23.06,24.25-34.2,5.21-6.87,10.38-13.77,15.82-20.47,5.19-6.38,10.54-12.62,15.9-18.87,6.08-7.1,12.5-13.9,19.12-20.48q10.44-10.38,21.9-19.7a155.42,155.42,0,0,1,14.38-10.36c.86-.55,1.58-1.1,1.25-2.29s-1.37-1.16-2.32-1.1c-13.82.88-26.59,5.52-38.81,11.55A153.57,153.57,0,0,0,326,213.22c-6.35,5.47-12.57,11.06-18.47,17a291.09,291.09,0,0,0-20.42,23.17c-5,6.24-9.84,12.57-14.38,19.15-4.94,7.18-9.69,14.47-14.35,21.83-5.13,8.12-9.49,16.65-14,25.13a224.83,224.83,0,0,0-12.44,29c-.33.91-.81,1.75-1.13,2.65a3,3,0,0,1-1.27,1.67,1.65,1.65,0,0,1-.54.24,3.26,3.26,0,0,1-1.31.1c-4.56-1.08-9.16-2-13.35-4.25,0-.12-.08-.25-.11-.37a.23.23,0,0,1,0-.11c-.65-2.31.1-4.58.53-6.82a200.61,200.61,0,0,1,9.52-32.63c2.47-6.55,5.51-12.89,8.61-19.2a233.7,233.7,0,0,1,12.83-23,255.73,255.73,0,0,1,29.46-38,176.95,176.95,0,0,1,41.35-33.14,144.64,144.64,0,0,1,34.19-14.3c9.64-2.75,19.52-4.79,29.71-4.5,6,.17,11.94-.13,17.94.61-6.75-2.48-13.8-3.36-20.78-4.54-13.11-2.23-26.19-1.84-39.36-.19a133.28,133.28,0,0,0-36.5,10.4,145.76,145.76,0,0,0-18.23,10.06,135.84,135.84,0,0,0-18.68,14.18,152.68,152.68,0,0,0-14.29,14.15,227.22,227.22,0,0,0-23.56,32,216.15,216.15,0,0,0-12.19,23.63,196.23,196.23,0,0,0-10.31,29.61,144.29,144.29,0,0,0-4.22,25c-.2,2.39-.48,4.76-.47,7.17a6.89,6.89,0,0,1-.92,3.67l0,0-.05,0a1.08,1.08,0,0,1-1,.25c-3.59-1.46-7.39-2.49-10.37-5.18,0-.07,0-.13,0-.2a.66.66,0,0,0,0-.14,57.33,57.33,0,0,1-.07-10.15c.44-4.53.51-9.08,1.07-13.61.6-4.85,1.35-9.67,2.37-14.42a171.14,171.14,0,0,1,5.38-19.62,188.24,188.24,0,0,1,12.71-29.15c10.35-18.92,23-36.17,38.79-50.9a141.44,141.44,0,0,1,24.44-18.47,144.6,144.6,0,0,1,27.56-12.75,118.67,118.67,0,0,1,15.81-3.83,123.43,123.43,0,0,1,24.78-2,137.1,137.1,0,0,1,40.34,6.4c1.7.55,3.43,1,4.71,1.42-8.09-2.65-16.94-6-26.19-8.08A179.68,179.68,0,0,0,323,157.88a133.82,133.82,0,0,0-26,2.29,116.08,116.08,0,0,0-21.83,6.27,125.71,125.71,0,0,0-35.74,21.15,173.76,173.76,0,0,0-35.24,41.52,169.75,169.75,0,0,0-19.87,45.54,146.61,146.61,0,0,0-4.71,28.07c-.49,7.11-.37,14.2-.44,21.31,0,2.41.57,4.76.53,7.16,0,.73.29,1.6-.49,2.05l-.16.07-.2.08a2.91,2.91,0,0,1-2-.54c-4.66-2.63-9.3-5.31-13.72-8.35-.77-.53-1.63-1-1.83-2.07v0c-.23-3.42-.55-6.83-.67-10.25-.14-4.21-.24-8.43-.14-12.64s.35-8.58.73-12.85c.48-5.24,1.22-10.43,2.12-15.61a166.82,166.82,0,0,1,6.11-24c.88-2.64,1.87-5.24,2.83-7.86a4.51,4.51,0,0,0,.5-2.06,4.79,4.79,0,0,1,.19-.93h0c.27-.89.74-1.72,1-2.62.05-.13.11-.25.16-.38s.15-.37.23-.55c1.78-4.2,3.78-8.3,6-12.3l.15-.28s0,0,0,0c5.5-9.64,11.31-19.07,18.63-27.5,2-2.32,4.08-4.62,6-7l.05-.06a1.84,1.84,0,0,0,.22-.17c.95-.79,1.41-2.19,2.77-2.45l.33,0c3-2.75,5.9-5.57,9-8.22A127.3,127.3,0,0,1,229.9,165c.49-.31,1-.58,1.48-.94l5.25-3.36c.53-.54,1.36-.52,1.9-1a66.47,66.47,0,0,1,8.93-5,129.41,129.41,0,0,1,17.43-7.15,151.27,151.27,0,0,1,20.15-5,135.9,135.9,0,0,1,18.32-1.88,139.23,139.23,0,0,1,19.79.73A142.92,142.92,0,0,1,352,147.71a138.45,138.45,0,0,1,21.32,9,159,159,0,0,1,21.81,13.69c2,1.5,3.84,3.32,6.14,4.63.87-.75,1-1.83,1.41-2.73,2.16-4.82,4.45-9.57,8-13.53,2.56-2.85,5.55-4.87,9.66-5,4.3-.09,9.12,3.46,10,7.65.61,3,0,5.87-.51,8.78-.25,1.5-.64,3-.74,4.49-.26,3.78,2.61,6,6.23,4.82a17.31,17.31,0,0,0,4.9-2.4c.38-.48,1-.57,1.45-1l1.43-1a15.9,15.9,0,0,1,1.88-1.48c2-1.94,4.06-3.79,5.92-5.83,1.59-1.74,3.4-1.94,5.06-.93A4.47,4.47,0,0,1,457.55,172.43Z"/><path class="cls-3" d="M362.66,431.77c-.44,1.75-1.15,3.43-1.58,5.19a.8.8,0,0,1,0,.15,1.35,1.35,0,0,1-.05.29c-.9,5.45-4.53,8.76-8.95,11.75-5.9,4-11.79,7.94-18,11.44h0l-1.28.7c-.46.27-.93.52-1.4.77a181.14,181.14,0,0,1-26,11.42,3.37,3.37,0,0,1-.82.19,13.85,13.85,0,0,0-2,.24l-.41.15c-1.09.22-2.21.35-3.27.67a167.66,167.66,0,0,1-29.5,6.12,171,171,0,0,1-24.87,1.24,181.12,181.12,0,0,1-54.95-9.77,161.13,161.13,0,0,1-51.46-29.09A153.32,153.32,0,0,1,97,389.08a157.38,157.38,0,0,1-12.32-41.42,153.52,153.52,0,0,1-1.72-17.14c-.16-3.92-.19-7.83-.3-11.74-.16-5.59,1.12-10.95,2.46-16.28A164.54,164.54,0,0,1,93.37,277a29.8,29.8,0,0,1,3-6,2.76,2.76,0,0,1,.43-.2,4.13,4.13,0,0,1,.55-.21c1.66-.5,3.37-.17,5-.05.1,0,.21,0,.31,0,1.33.08,1.55,1.24,1.57,2.32.11,4.79.59,9.56,1,14.33A253.73,253.73,0,0,0,110,319.5a189.25,189.25,0,0,0,12.62,39.17,145,145,0,0,0,23.91,37.16c17.92,20,40.24,32.74,65.87,40.06a201.89,201.89,0,0,0,40.34,6.87,265,265,0,0,0,31.63.28,312,312,0,0,0,55.71-7.85c7.3-1.68,14.54-3.51,21.65-5.88l.1,0,.13.05C363.3,429.78,362.88,430.86,362.66,431.77Z"/><path class="cls-3" d="M395.18,363a7.38,7.38,0,0,1-1.43,4.71,219.84,219.84,0,0,1-14.45,18.21A166.71,166.71,0,0,1,353,409.63a151.44,151.44,0,0,1-13.59,9,3.62,3.62,0,0,1-.43.24c-.2.13-.41.24-.61.36-4.47.14-8.94,0-13.37-.33-6.77-.44-13.53-1-20.27-1.79a263.09,263.09,0,0,1-59.82-14.3A222.22,222.22,0,0,1,129.77,307a153.34,153.34,0,0,1-8.43-15.61c-.38-.83-1.44-1.83-.32-2.72a2.07,2.07,0,0,1,.36-.25c3.3,3.34,6.52,6.76,9.92,10a207.28,207.28,0,0,0,29.95,24h0A125.83,125.83,0,0,0,178.56,333l.65.23a25.32,25.32,0,0,1,8.16,4.2l.34.29a69.11,69.11,0,0,0,11,4.94h.13c2.19,0,3.95,1.29,5.88,2,3.19,1.22,6.56,2,9.53,3.81l.33.2a99.34,99.34,0,0,0,13.42,4h0l1.56.22c8.3,1.21,16.4,3.56,24.75,4.49a5.82,5.82,0,0,1,1.9.67l.55.27a225,225,0,0,0,51.42,1l1.65-.27c15.72-2.57,31.58-4.39,47-8.66l.13,0,.67-.18c6.48-1.65,12.92-3.42,19.22-5.66,2.52-.9,4.73-1.13,7,.61.93.73,2.14,1.08,3.13,1.75l.16.1.25.15c1.85,1.12,3.79,2.08,5.65,3.17a2.68,2.68,0,0,1,1.62,2.46C394.47,356.17,395.09,359.57,395.18,363Z"/><path class="cls-4" d="M362,429.33l-.06.2c-.35.75-1.1.84-1.79,1.05-9.35,2.89-18.86,5.11-28.44,7.07-5.91,1.21-11.87,2.15-17.8,3.17-2.81.49-5.68.65-8.5,1.09-4.32.67-8.68.95-13,1.32-3,.26-6,.61-9,.61-6.88,0-13.76,0-20.63,0-5,0-10-.49-15-.88-5.47-.43-10.89-1.18-16.29-2.08a182.86,182.86,0,0,1-20-4.55,155,155,0,0,1-31.15-12.78A124.13,124.13,0,0,1,162.78,412a120.35,120.35,0,0,1-14.19-12.78,149.12,149.12,0,0,1-18-23.78,146.59,146.59,0,0,1-8-15.24,179.45,179.45,0,0,1-8.54-22.54c-2.08-6.86-3.86-13.78-5.25-20.8-1.1-5.6-2.14-11.21-2.78-16.89-.51-4.49-1.12-9-1.46-13.48s-.84-8.86-.89-13.31c0-2-.05-2-2-2-1.62,0-3.25,0-4.87-.05h-.41a1.14,1.14,0,0,1,.11-.4,1.6,1.6,0,0,1,.31-.28,1.68,1.68,0,0,1,.57-.28,3.82,3.82,0,0,1,1.07-.12c1.43,0,2.87,0,4.3-.06,2.77-.05,5.53-.11,8.3,0a4.59,4.59,0,0,1,1.69.29,2.72,2.72,0,0,1,.57.33q2.3,5.88,4.58,11.75a19.05,19.05,0,0,0,3.49,6.17,1.25,1.25,0,0,0-.29.35c-.3.56.14,1.08.39,1.58,1.82,3.73,3.71,7.42,5.75,11,3.64,6.46,7.55,12.74,11.8,18.82,3.78,5.41,7.73,10.68,12,15.75a217.93,217.93,0,0,0,16.37,17.73c3.84,3.69,7.88,7.17,11.95,10.62,4.75,4,9.71,7.72,14.77,11.3a225.73,225.73,0,0,0,35.26,20.16c3.88,1.82,7.91,3.37,11.9,5,5.93,2.37,12,4.32,18.06,6.23a224.46,224.46,0,0,0,24.5,6.15c5.44,1.06,10.91,2.12,16.41,2.78,3.3.4,6.61.84,9.92,1.18,4.74.49,9.52.5,14.22,1.29a16,16,0,0,0,3.6,0c3.51-.23,7,.41,10.49.48.31-.09.63-.17.94-.24,4-.94,8.06-.52,12.08-.1,1.61.17,2.54,1.83,3.67,2.94l.47.51a2,2,0,0,0,.25.26c1.57,1.7,3.28,3.28,4.88,5C361.3,427.81,362.22,428.29,362,429.33Z"/><path class="cls-5" d="M431.56,284.57c-.44,5.48-1.09,11-2,16.4a161.08,161.08,0,0,1-5.4,22.59,193.49,193.49,0,0,1-15,35.74,224,224,0,0,1-26.45,38.12,194.75,194.75,0,0,1-24.56,23.49,4.46,4.46,0,0,1-2.32,1.33,1.87,1.87,0,0,1-.62,0,4,4,0,0,1-.93-.71c-1.56-2.24-3.66-2.88-6.36-2.68-3,.22-6,.06-9,0h-.51c1.38-1.62,3.37-2.36,5.09-3.48A189.12,189.12,0,0,0,366.39,398a175.3,175.3,0,0,0,25.71-29c2.69-3.75,2.73-3.79,2.33-8.4a73.62,73.62,0,0,1-.29-7.42,2.39,2.39,0,0,0-1.45-2.45c-2-1-3.87-2.21-5.79-3.34l.23-.45c2.12-4.18,4.68-8.14,6.91-12.27a185.94,185.94,0,0,0,11.55-25.79,202.14,202.14,0,0,0,9.19-33.46,196,196,0,0,0,2.88-27.38,172.6,172.6,0,0,0-2.37-35.74A141,141,0,0,0,410,190.93c-.61-1.77-.73-3.67-1.21-5.12,2.56,10.6,3,21.66,2.35,32.88-.84,15.61-4.41,30.62-8.94,45.48a259.68,259.68,0,0,1-13.89,34.68c-3.79,8-8.44,15.6-12.75,23.34-5.39,9.71-11.88,18.71-18,28l-.44.67c-5.17,1.61-10.47,2.64-15.75,3.76-7.39,1.57-14.86,2.68-22.34,3.71-3.15.43-6.33.62-9.5.88l-1.41.12a5.54,5.54,0,0,0,2.86-2.24c3.3-3.89,6.13-8.13,9.31-12.11,1.48-1.84,2.77-3.85,4.24-5.72,2.15-2.76,3.82-5.89,6-8.63s3.86-5.8,6.16-8.46c1.75-2,3-4.51,4.46-6.77,2.93-4.45,5.94-8.86,8.82-13.34,3.19-4.95,6.18-10,9.45-14.94,3.05-4.56,5.72-9.35,8.44-14.1,3.31-5.8,6.68-11.56,9.78-17.48,1.63-3.1,3.52-6.07,5-9.24,2.55-5.37,5.4-10.62,7.56-16.15,1.47-3.77,3.58-7.28,4.64-11.2a17.26,17.26,0,0,1,1.51-3c1.74-3.57,2.51-7.48,4-11.15a99.89,99.89,0,0,0,4.12-13.68,43.35,43.35,0,0,0,1-4.84,4.66,4.66,0,0,1,.27-1.16c.6-1.46,1.22-2.91,1.84-4.36.11-.26.22-.52.32-.78h0c-.21,1.26,1.14,1.79,1.36,2.85.15.34.31.67.47,1,1.82,3.88,3.79,7.68,5.57,11.57l.24.52A209.42,209.42,0,0,1,424,218.13c2,6.09,3.25,12.35,4.75,18.56,1.15,4.73,1.27,9.65,2,14.46A153.15,153.15,0,0,1,432,267.84,137.44,137.44,0,0,1,431.56,284.57Z"/><path class="cls-2" d="M463.41,306.5a180.53,180.53,0,0,0-1.4-18.62,185.83,185.83,0,0,0-7.72-33.51c-2.06-6.11-4.27-12.17-6.91-18a173.34,173.34,0,0,0-11.63-21.65A166.73,166.73,0,0,0,418,191.31c-2.24-2.45-4.28-5.14-7-7.08a3.62,3.62,0,0,0-1-.9l-.52-.52a2.57,2.57,0,0,0-.15.5,2.66,2.66,0,0,0,.41,1.83c.25.44.56.86.8,1.29a130.17,130.17,0,0,1,5.79,12.25,97.16,97.16,0,0,1,3.84,9.72c1.35,4.55,2.94,9,4.29,13.58,1.2,4,1.89,8.19,3,12.24a63.74,63.74,0,0,1,1.71,9.35c.38,3.23.8,6.45,1.13,9.69a75.27,75.27,0,0,1,.83,9.72,8.89,8.89,0,0,0,.09,3.1c.92,2.5.14,5,.21,7.52.1,3.11-.27,6.28-.32,9.42a15.42,15.42,0,0,1-.14,2.15c-.52,3.29-.73,6.61-1.14,9.91s-.79,6.58-1.48,9.79c-1.17,5.44-2.54,10.83-4,16.2a79.15,79.15,0,0,1-3.65,11.36c-1.5,3.42-2.91,6.88-4.27,10.36a83.59,83.59,0,0,1-3.92,8.86c-2,3.79-3.91,7.65-6.14,11.35-2.58,4.28-5,8.66-7.85,12.8-3.39,5-6.82,10-10.69,14.61-1.48,1.77-2.82,3.67-4.41,5.33-2.36,2.46-4.38,5.22-6.85,7.6s-4.5,4.65-6.81,6.92c-1.94,1.91-4.16,3.46-6.17,5.28a59.09,59.09,0,0,1-7.92,6.44l-.37.24a7.05,7.05,0,0,0,1.52,1.79c1.62,1.8,3.49,3.37,5,5.3l.17.22c.83.68.28,1.42.12,2.16-.38,1.84-1.47,3.49-1.51,5.43a1.82,1.82,0,0,0,.47.28,1.9,1.9,0,0,0,1.7-.5c3.36-2.3,6.78-4.54,9.93-7.12a181,181,0,0,0,28.62-29.22,240.4,240.4,0,0,0,22.24-34.36,189,189,0,0,0,10-23.3,147.44,147.44,0,0,0,5-17.48,152.57,152.57,0,0,0,3.64-22.21,158.42,158.42,0,0,0,.09-29.62c-.64-6.11-1.21-12.25-2.33-18.28a199.38,199.38,0,0,0-6.37-23.8,159.44,159.44,0,0,0-15.14-34,1,1,0,0,1,.28.29,279,279,0,0,1,21,44.06,205,205,0,0,1,9.15,35.4,195.61,195.61,0,0,1,2.2,22.63c.52,9.19-.33,18.35-1.49,27.47-1.8,14.13-5.89,27.67-11.23,40.79a139.07,139.07,0,0,1-12.83,24.35,216,216,0,0,1-17.54,23.66,149.36,149.36,0,0,1-28.34,25.32,132.3,132.3,0,0,1-20.34,11.18A99.87,99.87,0,0,1,344.13,458c-3.35.89-6.76,1.55-10.06,2.59h0q-1.41.43-2.79,1a218.51,218.51,0,0,1-20,9l-7.79,2.93-.94.36-.41.15a90.43,90.43,0,0,0,16.18.8,124.28,124.28,0,0,0,13.35-.85,150.47,150.47,0,0,0,16.87-3.15,126.71,126.71,0,0,0,16.11-5,153.12,153.12,0,0,0,16.23-7.41q5.78-3.09,11.25-6.65c2.66-1.73,5.18-3.68,7.76-5.52a9.17,9.17,0,0,1,1.41-1l2.84-2.45a6,6,0,0,0,1.42-1c2-1.83,4-3.63,6-5.48A158.25,158.25,0,0,0,429,417.05a160.86,160.86,0,0,0,12.32-18.48,165.56,165.56,0,0,0,12.33-27.52,173.76,173.76,0,0,0,6.58-24.69A182.52,182.52,0,0,0,463,325.54,170.35,170.35,0,0,0,463.41,306.5ZM417,195.41c.78.42.76,1.19,1.1,1.71C417.71,196.61,417.69,195.86,417,195.41Z"/><path class="cls-6" d="M314.44,85.8c-3,1.45-5.95,2.93-8.95,4.38L241.7,121.07l-48.29,23.36a2,2,0,0,1-.22.09c-2.11,1-2.13,1-1.14,3.16l14.8,31.68,1.59,3.44-.14.12c-1,.85-1.64,2.06-2.78,2.78a1.51,1.51,0,0,1-.45-.18c-.73-.42-.91-1.27-1.23-2q-7.16-16.36-14.55-32.62c-1.33-2.9-1.47-3-4.26-1.67-9.31,4.44-18.63,8.85-27.83,13.51l-.2.1-.38.19c-2.31,1.14-4.7,2.1-7,3.23-1.79.87-2,1.93-1.26,3.64,5.34,12.22,10.47,24.53,15.72,36.78,3.5,8.14,6.54,16.47,9.83,24.7a5.74,5.74,0,0,1,.39,1.26,2.48,2.48,0,0,1,0,1,5.37,5.37,0,0,1-1.17,3l-.36.42c-3.3-7.95-6.53-15.93-9.92-23.84q-8.66-20.25-17.49-40.44a16.52,16.52,0,0,0-2-4.15l-16,7.69q-36.9,17.76-73.8,35.5C48.23,214.43,43,217,37.76,219.56c-.57.28-1.14.58-1.73.82-2.13.88-3.26.52-4.32-1.54-1.91-3.69-3.72-7.42-5.61-11.12-2.18-4.28-3.52-8.9-5.33-13.33-1.9-4.66-3.93-9.26-5.88-13.9-.74-1.76-1.59-3.5-.56-5.49.36-.68-.12-1.39-.38-2.06-4.06-10.75-8.12-21.5-12.57-32.1-.62-1.47-1.33-2.91-.27-4.45l0,0a95,95,0,0,1,9.93-5.25q32.64-16.4,65.33-32.71Q101.27,86,126.17,73.63c.76-.38,1.65-.58,2-1.58.18-.56.85-.69,1.34-.93Q159.94,56,190.41,40.82,222.66,24.71,254.86,8.5c4.85-2.44,9.66-4.93,14.48-7.4A3.09,3.09,0,0,0,269.8,1l.07,0c3-1.12,3.72-.81,5.19,2.13,4.3,8.56,7.89,17.45,12,26.11,1.41,2.95,2.83,5.9,4.2,8.87.71,1.52,1.5,3,.6,4.79-.32.63.05,1.22.36,1.8,3.13,6,6.07,12.13,9.52,18,3.06,5.16,5.11,10.82,7.63,16.25.8,1.72,1.41,3.53,3.47,4.34C313.71,83.58,314.1,84.63,314.44,85.8Z"/><path class="cls-7" d="M113.31,270.49h-.47l-10.42.1-5,.05H96.5a1.38,1.38,0,0,1-.47-1.27l.06-8.32a1.48,1.48,0,0,1,.52.21c.62.42.45,1.25.51,1.9a32.36,32.36,0,0,1,0,4.06c-.06,1.67.74,2.23,2.32,2.24,2.77,0,3.2-.42,2.87-3.2-2.06-17.39-6.19-34.35-10.48-51.28a20.8,20.8,0,0,1-.73-3.31,4.92,4.92,0,0,1,0-.67,18.38,18.38,0,0,1,15.41-1.86c1,.29,1.58.6,1.19,2-1,3.34-.71,6.82-.47,10.24,1,14.8,3.07,29.49,5.45,44.14C113,267.16,113.1,268.83,113.31,270.49Z"/><path class="cls-8" d="M103.21,268.82a1.24,1.24,0,0,1-.46,1.09,1.38,1.38,0,0,1-.84.22c-1.36,0-2.72,0-4.08,0a2,2,0,0,1-.45,0,1,1,0,0,1-.62-.34,1.73,1.73,0,0,1-.28-1.13c0-1.76,0-3.52,0-5.27,0-.78.25-1.62-.39-2.29a64.64,64.64,0,0,0-3.28-13.21,64.62,64.62,0,0,0-13.54-21c-1.52-1.6-1.55-1.6-.45-3.36a38.47,38.47,0,0,1,9.81-11A9.4,9.4,0,0,1,91.1,211a1.76,1.76,0,0,1,.46.44,2.82,2.82,0,0,1,.53,1.15c3,12.58,6.27,25.11,8.57,37.85.85,4.75,2,9.48,2.13,14.35C102.84,266.13,103.27,267.45,103.21,268.82Z"/><path class="cls-9" d="M445,173.71a3.44,3.44,0,0,1-.52.75,2.27,2.27,0,0,1-.57.45,2.39,2.39,0,0,1-.79.28A2.15,2.15,0,0,1,445,173.71Z"/><path class="cls-10" d="M238.53,159.71a2.09,2.09,0,0,1-.87.83,2,2,0,0,1-1,.2A2,2,0,0,1,238.53,159.71Z"/><path class="cls-11" d="M441.68,176.16a1.28,1.28,0,0,1-.19.5h0a1,1,0,0,1-.48.34,3,3,0,0,1-.77.12A1.23,1.23,0,0,1,441.68,176.16Z"/><path class="cls-12" d="M447.44,182.39c-.15.82-.74,1-1.45,1a1.62,1.62,0,0,1,.36-.65.87.87,0,0,1,.43-.28A1.3,1.3,0,0,1,447.44,182.39Z"/><path class="cls-13" d="M231.38,164.1a1.44,1.44,0,0,1-1.48.94A1.23,1.23,0,0,1,231.38,164.1Z"/><path class="cls-12" d="M405.56,441.86a1.24,1.24,0,0,1-1.42,1,1.5,1.5,0,0,1,.51-.68A1.7,1.7,0,0,1,405.56,441.86Z"/><path class="cls-14" d="M401.3,445.28a1.41,1.41,0,0,1-1.41,1A1.32,1.32,0,0,1,401.3,445.28Z"/><path class="cls-5" d="M408.59,178.53a1.72,1.72,0,0,1-.52,1.43h0C408,179.41,407.91,178.82,408.59,178.53Z"/><path class="cls-5" d="M410.92,184.23a1.36,1.36,0,0,1-1-.9C410.62,183.26,410.86,183.64,410.92,184.23Z"/><path class="cls-5" d="M256.79,358.34c-4.37-.41-8.7-1.13-13-2-5.09-1-10.13-2.2-15.19-3.32a2.39,2.39,0,0,1-.61-.36,2,2,0,0,0,2.19-1.29c1.41-3,2.2-6.16,3.43-9.19.95-2.36,1.93-4.71,3-7,2.23-5,4.06-10.19,6.85-15s5-9.91,7.74-14.74c3.78-6.73,7.76-13.35,12-19.78,1.9-2.86,3.64-5.82,5.65-8.59,4.26-5.85,8.05-12.06,12.82-17.5,1.91-2.18,3.1-4.82,5.15-6.87,2.86-2.87,5.21-6.2,7.84-9.28,3-3.52,6.17-6.87,9.19-10.36a73.51,73.51,0,0,1,5.73-5.71c.94-.87,1.69-1.88,2.59-2.76,2.39-2.35,5.08-4.37,7.49-6.66,2.72-2.6,5.81-4.73,8.48-7.37,2-2,4.47-3.31,6.64-5.06a85.63,85.63,0,0,1,8.56-6c4.09-2.55,8.27-5,12.46-7.35,6.07-3.47,12.65-5.62,19.09-8.12a56.13,56.13,0,0,1,13.05-3.53c3.37-.43,6.76-1,10.18-1.11.79,0,1.79-.11,1.7,1.08-.08,1,1.22,1.92-.59,3a103.76,103.76,0,0,0-14.38,10.21c-2.85,2.41-5.79,4.74-8.6,7.2s-5.54,5-8.22,7.59c-1.41,1.36-2.85,2.72-4.31,4a89.89,89.89,0,0,0-7.65,7.84c-1.29,1.49-2.72,2.86-4.1,4.28-5.38,5.54-10.38,11.39-15.31,17.32-2.58,3.12-5.29,6.13-7.87,9.25-2.13,2.58-4.12,5.26-6.22,7.86-4.18,5.21-7.92,10.76-12.22,15.88-1.62,1.94-2.89,4.18-4.39,6.24-3.75,5.14-7.64,10.19-11.16,15.49-1.72,2.58-3.18,5.37-5.1,7.79-4.37,5.5-7.82,11.6-11.69,17.42-4.76,7.16-9.13,14.58-13.53,22-2.52,4.24-4.81,8.62-7.58,12.72A1.36,1.36,0,0,0,256.79,358.34Z"/><path class="cls-5" d="M214.58,348.72a98.8,98.8,0,0,1-15.87-6.05c.53-6.09.71-12.23,1.71-18.24.69-4.2,1.18-8.46,2.3-12.64,1-3.66,1.84-7.37,2.82-11,1.09-4.07,2.72-8,4-12,1.78-5.72,4.49-11,6.88-16.5.87-2,1.73-3.95,2.7-5.87a185.75,185.75,0,0,1,10.18-17.55c1.34-2.08,2.5-4.28,3.94-6.27,1.63-2.26,3.35-4.44,4.93-6.74,1.22-1.76,2.64-3.38,4-5.06,3.22-4,6.5-8,10-11.77,2-2.09,4-4.06,6-6.1a134.83,134.83,0,0,1,14.43-12.68c2.47-1.89,4.88-3.85,7.49-5.52A143,143,0,0,1,293,186.83a131.54,131.54,0,0,1,11.91-5.7c5.11-1.91,10.26-3.7,15.41-5.48a12.46,12.46,0,0,1,4.89-1c1.06.07,1.72-.74,2.64-1a38.28,38.28,0,0,1,5.89-.82c3.15-.42,6.26-1.09,9.42-1.4,2.45-.24,4.91-.41,7.37-.58a116.29,116.29,0,0,1,14.7,0,100.4,100.4,0,0,1,13.48,1.53c2.14.4,4.22,1.25,6.53.93,1-.13,2.12.64,3.21.83A85.86,85.86,0,0,1,399.29,177c.46.14,1,.17.91.83s-.63.56-1.12.46a50.37,50.37,0,0,0-9.41-.78c-4.64-.06-9.28,0-13.91,0a56.61,56.61,0,0,0-7.34.8c-1.57.21-3.24,0-4.7.65-2.83,1.32-6.13.62-8.9,2.21-.88.5-2,.06-3.05.42-3.2,1.13-6.43,2.16-9.64,3.22s-6,2.29-9,3.39a102.44,102.44,0,0,0-10.94,5.11c-6.27,3.15-12,7.07-17.9,10.85-1.8,1.15-3.45,2.55-5.18,3.82a129.72,129.72,0,0,0-11.39,9.37c-2.32,2.14-4.66,4.29-6.87,6.58s-4.18,4.55-6.39,6.7c-4.64,4.52-8.49,9.69-12.55,14.71a234.08,234.08,0,0,0-14.54,20.09q-4.86,7.5-9.23,15.32a75.55,75.55,0,0,0-4.27,8.77,8.89,8.89,0,0,1-1.7,2.86,10.57,10.57,0,0,0-1.82,4.08c-1,2.89-2.44,5.52-3.62,8.29a141.4,141.4,0,0,0-6.94,20.51c-.22.85-.63,1.64-.93,2.46-1.69,4.66-2.33,9.57-3.5,14.35A23.64,23.64,0,0,0,214.58,348.72Z"/><path class="cls-5" d="M187.71,337.73a71.26,71.26,0,0,1-9.15-4.72c.32-.06.74-.16.65-.53-.28-1.11.07-2.28-.22-3.34-.62-2.29-.33-4.6-.43-6.9-.2-5-.07-10,.08-15,.08-2.92.48-5.85.72-8.77.24-3.1.95-6.12,1.17-9.22.21-2.93,1.2-5.74,1.79-8.62A105.26,105.26,0,0,1,186,266.88c1.84-5.27,3.8-10.47,6-15.59,2.09-4.81,4.45-9.48,6.69-14.21.8-1.69,2.28-2.9,3-4.58a48.06,48.06,0,0,1,3.83-6.6,184.63,184.63,0,0,1,14-19.27,144.25,144.25,0,0,1,14.73-15.34,136,136,0,0,1,13.17-10.6c4.05-2.83,8.28-5.28,12.53-7.78,3.23-1.89,6.78-3,10-4.77,5.3-2.93,11.14-4,16.7-6.08a16.87,16.87,0,0,1,6.25-1.36,3,3,0,0,0,1.14-.33,27.28,27.28,0,0,1,8.86-1.58,21.26,21.26,0,0,0,3.05-.57,6.48,6.48,0,0,1,1.39-.32c3.59.1,7.13-.63,10.74-.58s7-.2,10.47.13c4.18.4,8.43.1,12.57,1.19,1.88.49,3.89.14,5.88.56,2.94.63,5.88,1.37,8.86,1.83,5.25.82,10.24,2.57,15.35,3.94,5.6,1.5,10.83,4,16.4,5.55a3.09,3.09,0,0,1,1.94,1.2c-.3.74-.78.43-1.21.29a179.69,179.69,0,0,0-17.42-5.08c-4.48-1-8.92-2.45-13.59-2.34a20.28,20.28,0,0,1-2.82-.5,141.7,141.7,0,0,0-21-.91,53.07,53.07,0,0,0-6.16.6c-1.42.21-2.78-.12-4.22.11-4.07.63-8.11,1.45-12.14,2.24-2.45.47-5,.75-7.29,2.05a1.75,1.75,0,0,1-.92.21c-2.4-.08-4.43,1-6.49,2a25.06,25.06,0,0,1-3.78,1.27,13.73,13.73,0,0,0-2.61,1c-2.93,1.63-6.18,2.57-9.07,4.2l-8.7,4.9c-4.75,2.66-9,6-13.41,9.1-2.61,1.79-4.83,4.14-7.29,6.16a127.87,127.87,0,0,0-13.13,12.89,114.53,114.53,0,0,0-10,11.89c-1.89,2.75-4.08,5.29-6,8.06-3.57,5.27-7.13,10.53-10.23,16.11-1.81,3.26-3.75,6.46-5.44,9.78a35.57,35.57,0,0,0-3,6.67,28.57,28.57,0,0,1-1.56,3.2c-1.48,3.49-2.91,7-4.35,10.51-.51,1.23-.38,2.62-1,3.86a46.57,46.57,0,0,0-3.33,10.17c-1,4.95-2.67,9.79-3.06,14.89-.11,1.42-.69,2.76-.85,4.19-.61,5.61-1.48,11.18-1.51,16.86,0,2.35-.46,4.75-.33,7.14A27.79,27.79,0,0,1,187.71,337.73Z"/><path class="cls-15" d="M157,162.19c9.9-4.82,19.81-9.61,29.7-14.47,1.22-.6,1.71-.17,2.18.87,2.16,4.8,4.39,9.57,6.54,14.38q5.08,11.34,10.12,22.73a8.53,8.53,0,0,1-1.25,1.74,121.56,121.56,0,0,0-12.2,15,148.47,148.47,0,0,0-8.27,12.89c-.9,1.67-2,3.26-2.9,4.94-1.73.47-1.73-1.07-2.11-1.95-3.81-8.69-7.13-17.58-10.68-26.38-3.64-9-7.19-18.09-11-27.05C156.77,164,156.25,163.13,157,162.19Z"/><path class="cls-16" d="M157,162.19c-.09,1.7,1,3,1.58,4.46,5.07,12.73,10.24,25.42,15.38,38.13q2.77,6.87,5.56,13.73c.3.73.41,1.59,1.4,1.75q-3.33,6.72-6.64,13.44c-2.31-5.08-4.16-10.35-6.21-15.53-3.8-9.64-7.92-19.14-12-28.65q-4.31-10-8.54-20c-1-2.31-.93-2.37,1.27-3.44C151.48,164.74,154.24,163.48,157,162.19Z"/><path class="cls-5" d="M392.31,173a2.2,2.2,0,0,1-.36.14,1.85,1.85,0,0,1-1.21-.52c-.14-.11-.09-.28.11-.32a1.94,1.94,0,0,1,1.26.42A2.81,2.81,0,0,1,392.31,173Z"/><path class="cls-5" d="M360.53,437.12a2,2,0,0,0,1.38-.3c2.36-2.26,5.29-3.74,7.87-5.72,4.6-3.56,8.86-7.47,13.19-11.33,5.14-4.56,9.43-9.85,14-14.91,1.93-2.14,3.37-4.65,5.45-6.65a16.36,16.36,0,0,0,2.1-2.88c2.59-3.82,5.33-7.54,7.88-11.37,2.07-3.11,4-6.31,5.92-9.52,3.11-5.24,5.56-10.82,8.35-16.22a53.12,53.12,0,0,0,3.31-8.15c.67-2.1,1.62-4.12,2.49-6.16,1-2.26,1.56-4.68,2.33-7s1.29-4.9,2.17-7.29a49,49,0,0,0,1.16-5.33,107.52,107.52,0,0,0,2.75-15c.26-2.67.59-5.35.81-8,.28-3.39,0-6.82.71-10.17.21-1-.47-1.84-.31-2.81.5-3.08-.17-6.16,0-9.25a38.61,38.61,0,0,0-.81-7.8c-.31-1.95,0-4-.53-5.89-.68-2.39-.57-4.89-1-7.31a18.65,18.65,0,0,0-.5-3.05c-.75-2.19-.88-4.52-1.45-6.74-.86-3.3-1.75-6.59-2.71-9.86-.71-2.42-1.71-4.75-2.32-7.19a56.93,56.93,0,0,0-3.36-9.91c-1.42-3.09-2.21-6.44-4.07-9.38a45.22,45.22,0,0,1-2.76-6c-.81-1.85-1.92-3.5-2.87-5.24-.61-1.12-1-2.31-1.6-3.45h0c1.1.06,1.42,1,1.79,1.75,2.51,4.89,5.63,9.43,8.05,14.37,1.15,2.34,2.44,4.68,3.51,7,1.3,2.87,2.57,5.78,3.92,8.64,1.76,3.73,2.8,7.72,4.48,11.48a55.09,55.09,0,0,1,2.45,7.14c.9,3.1,2,6.16,2.82,9.3s1.56,6.49,2.47,9.7c.46,1.63.12,3.32.72,4.94,1.39,3.76,1.4,7.77,2,11.68.6,4.18.64,8.41,1.07,12.58a117,117,0,0,1,.24,16.74,73.09,73.09,0,0,1-1.12,11.36c-.57,2.84-.76,5.81-1.09,8.73a75.72,75.72,0,0,1-1.84,8.61c-.85,3.8-1.81,7.57-2.95,11.3-.51,1.67-1.09,3.34-1.68,5-1.11,3.07-2.24,6.13-3.28,9.22-1.15,3.4-3.05,6.47-4.51,9.74a105.05,105.05,0,0,1-5.48,10.32,131.46,131.46,0,0,1-11.08,16.61c-1.66,2-2.84,4.42-4.53,6.45-3,3.53-5.81,7.15-9.06,10.43-2.45,2.48-4.67,5.2-7.26,7.51a100.72,100.72,0,0,1-8.48,7.34c-4.07,2.91-8,6.08-12.22,8.74a115.62,115.62,0,0,1-15.24,8.19c-2.87,1.25-5.71,2.56-8.63,3.69-1.61.62-3.25,1.15-4.89,1.66a147.9,147.9,0,0,1-17,4.17c3.34-2,6.72-3.92,10-6,5.14-3.19,10-6.72,14.89-10.34a7.1,7.1,0,0,0,3.11-4.58A24.22,24.22,0,0,1,360.53,437.12Z"/><path class="cls-2" d="M357.21,350.82c-.49-.36-.14-.65.06-1,3.4-5.68,7.28-11,10.89-16.58q4.56-7,8.65-14.27c3-5.33,5.85-10.77,9-16a51,51,0,0,0,2.72-5.85c1.79-4.16,3.63-8.31,5.44-12.46,2.52-5.76,4.8-11.62,6.77-17.57q2.79-8.46,4.93-17.16c1.74-7.07,3.1-14.23,4.16-21.41a57.28,57.28,0,0,0,.66-8.32c0-3.39.62-6.78.41-10.18-.39-6.54-.2-13.11-1.72-19.58-.46-1.95-.72-4-1.22-6.18,1.4,1,1.49,2.41,1.87,3.66,1.41,4.63,3.11,9.18,4.13,13.93,1.06,5,2,9.94,2.77,15s1.09,9.78,1.5,14.69c.15,1.84-.25,3.65,0,5.39a30.08,30.08,0,0,1,.32,7.14c-.4,4.33-.39,8.67-.75,13-.27,3.21-1,6.39-.84,9.66.06,1-.64,2-.71,3-.38,5.5-2,10.76-3.07,16.11-.93,4.46-2.53,8.72-3.66,13.1-.76,3-2,5.81-2.83,8.8a62.69,62.69,0,0,1-4,10.45c-1.77,3.74-3.14,7.67-5.16,11.29-2.2,3.94-4,8.13-6.54,11.88-1,1.5-1.63,3.28-2.69,4.79a3.49,3.49,0,0,1-1.37,1.3,51.1,51.1,0,0,1-4.62-2.48,3.63,3.63,0,0,0-3.56-.32c-6.61,2.29-13.35,4.16-20.1,6A13.31,13.31,0,0,1,357.21,350.82Z"/><path class="cls-5" d="M418.1,197.2a8.53,8.53,0,0,1-2-3.41,3.87,3.87,0,0,1,2,3.42Z"/><path class="cls-17" d="M295.73,58.5c.7,1.16,1.44,2.3,2.09,3.48.34.63.73,1.53.17,2-1.22,1.07-.37,1.84.15,2.67,2,3.24,4.12,6.47,6.18,9.7.73,1.15,1.44,2.3,2.24,3.57-3.65,1.8-7.21,3.58-10.79,5.33l-34,16.61c-.64.31-1.32.56-2,.84-.94-.9-1.06-1-.12-2.55,2.26-3.82,4-7.93,5.78-10.91-2,3.12-5.24,6.51-8.19,10.11-.48.59-1.22.63-1.8,1-1.57,1.7-3.25,3.32-4.69,5.12-2.21,2.79-5.29,4.26-8.24,6-8,4.67-16.26,8.89-24.51,13.11-21.91,11.19-44.05,21.92-66.18,32.67-13.87,6.73-27.79,13.34-41.68,20-5.82,2.81-11.57,5.77-17.49,8.38-10.87,3.26-22.15,4.63-33.13,7.38-6,1.51-12.14,2.77-18.19,4.24-1.14.28-2.31.78-3.45,0-2.68-2-5.38-4-8-6.05a3.33,3.33,0,0,0-2.69-.76c-1.8.37-2.57-.58-3.25-2-1.87-4-3.5-8.06-5.6-11.92a29.2,29.2,0,0,1-2.43-5.19,2.3,2.3,0,0,1-.05-2,1.37,1.37,0,0,1,0-.35c0-1.76,1.5-1.91,2.62-2.28,5.48-1.78,11.07-3.16,16.63-4.66,23.08-6.24,46.33-11.83,69.76-16.57,13.87-2.81,27.74-5.63,41.69-8.05,9.78-1.69,19.23-4.75,28.69-7.75a305.64,305.64,0,0,0,30.31-11.36A296.42,296.42,0,0,0,248,95.68c6.24-4.06,12.2-8.49,18.36-12.65a6.65,6.65,0,0,0,2.79-3.2A9,9,0,0,1,270.26,78c1.55-3.44,4.83-5,7.67-7,5.46-3.84,11.55-6.82,16.15-11.84C294.48,58.7,295,58.19,295.73,58.5Z"/><path class="cls-18" d="M12.91,162.2a65.87,65.87,0,0,1-5.08-10.78c-.7-1.78-.35-2.37,1.4-3.14.43-.2.89-.35,1.33-.52,8.24-2.28,16.67-3.73,25-5.75,16.3-3.95,32.49-8.3,48.52-13.25s31.58-10.3,47-16.43a6,6,0,0,1,4.2-.35,4.44,4.44,0,0,0,2.56-.4c18.15-7.78,36.21-15.73,54.29-23.64,8.42-3.69,16.06-8.94,24-13.48,11.11-6.33,22.18-12.74,33.25-19.13.73-.42,1.67-.64,2-1.79-1-.58-1.84.16-2.57.58-6.4,3.63-13.16,6.57-19.55,10.21a9.12,9.12,0,0,1-3.08,1.29c-1.52-.15-1.28-.93-.54-1.72a22.59,22.59,0,0,1,2.76-2.3c10.06-7.48,19.81-15.4,30.17-22.47a202.35,202.35,0,0,1,20.78-12.4c1.27-.66,2.62-1.44,3.49.57l5.9,12.48c.32.68.52,1.39-.18,1.95s-.47,1.25-.16,1.91c.68,1.43,1.38,2.86,2.06,4.29a2.87,2.87,0,0,1-.68,3.27C286.28,55.5,282,59,278,62.8a233,233,0,0,1-21.38,17.38,272.71,272.71,0,0,1-27.45,17.6A323.65,323.65,0,0,1,158.63,127c-8.41,2.42-17,3.85-25.56,5.43-11.64,2.15-23.13,5-34.69,7.54-14.84,3.26-29.54,7.12-44.16,11.26-12.62,3.59-25.27,7-37.78,11C15.31,162.59,14.07,163.51,12.91,162.2Z"/><path class="cls-18" d="M29.63,136.68,17.8,142c-.79.35-1.6.66-2.4,1-1.13.33-2.22.78-3.34,1.15-3.38,1.11-3.41,1.11-5.46-1.59-2.29-4.42-2.25-4.58,2.15-6.79,5.56-2.8,11.15-5.55,16.69-8.37a70.85,70.85,0,0,1,8.61-4.13c17.23-6.71,35-11.74,52.65-17.15a150.24,150.24,0,0,0,19.49-8,198.9,198.9,0,0,0,34.06-20A16,16,0,0,1,148,75.14a106.36,106.36,0,0,0,28.31-7.92A105,105,0,0,0,203.51,50a123.87,123.87,0,0,0,17.27-17.9,24.17,24.17,0,0,1,5.77-5.69c3.91-2,7.8-4,11.72-6L269.5,4.6c2.3-1.16,2.61-1.08,3.63,1.16,1.64,3.63,3.25,7.28,4.88,10.93.7,1.91-.83,2.35-2,2.93a169.93,169.93,0,0,0-18.58,11c-11.38,7.46-22,15.94-32.75,24.28-13.45,10.46-27.12,20.64-42.4,28.36-8.06,4.08-16.36,7.67-24.62,11.34C148.81,98.5,140,102.43,131,106.11c-11.53,4.74-23.23,9-35,13.34C75.39,127,54.26,133.07,33,138.84a18.31,18.31,0,0,1-2.8.65c-.72.09-1.66.5-1.88-.75l2.36-1.51a5.94,5.94,0,0,1,2.57-1.68c5.93-2.92,11.85-5.85,17.81-8.69,2.65-1.45,5.42-2.68,8.15-4-2.84,1.29-5.68,2.6-8.44,4.06-6,2.9-12,5.84-18,8.74A13.31,13.31,0,0,1,29.63,136.68Z"/><path class="cls-19" d="M12.91,162.2a2.56,2.56,0,0,0,2.08-.12c5.72-1.74,11.42-3.53,17.15-5.22,5.57-1.64,11.17-3.2,16.77-4.75,8.9-2.47,17.8-4.94,26.72-7.33,4.83-1.3,9.71-2.47,14.58-3.61,5.19-1.21,10.4-2.32,15.59-3.48,8.38-1.87,16.74-3.84,25.14-5.59,5.6-1.17,11.26-2,16.89-3,4.24-.74,8.31-2.17,12.46-3.29,8.78-2.36,17.31-5.54,25.89-8.51,4.66-1.62,9.19-3.65,13.72-5.61,6.45-2.79,12.82-5.75,19-9.05,7.89-4.19,15.72-8.48,23.24-13.34,4.68-3,9.37-6.05,13.79-9.45,5.36-4.12,10.88-8,15.95-12.54,3.52-3.13,6.95-6.34,10.47-9.45,2.47-2.18,4.54-4.69,6.88-7a3.5,3.5,0,0,0,1.21-3,102.1,102.1,0,0,1,5.28,10.57c-2.27,1.63-3.86,4-6.23,5.53-1.94,1.25-3.83,2.57-5.76,3.84-3.24,2.14-6.53,4.21-9.73,6.42a11.07,11.07,0,0,0-3.34,3.93c-2.43,1.33-5,2.46-7.86,3.79,1.83-.79,3.26-1.45,4.68-2.14.68-.33,1.36-1,2.2-.32.29,1.11-.39,1.78-1.08,2.49-1.86,1.9-4.24,3.09-6.35,4.67a268.92,268.92,0,0,1-25,16.33c-9.09,5.33-18.63,9.82-28.18,14.27-8.55,4-17.46,7-26.17,10.49C180,129,177,129.66,174,130.65a237.91,237.91,0,0,1-24.14,6.73c-4.18.93-8.45,1.45-12.65,2.28l-27.58,5.5c-9,1.79-17.86,3.85-26.83,5.59-5.54,1.08-11,2.59-16.48,3.95-8.72,2.16-17.46,4.28-26.14,6.56-7.32,1.92-14.57,4.06-21.85,6.1A3.56,3.56,0,0,0,15.8,169,36.88,36.88,0,0,1,12.91,162.2Z"/><path class="cls-19" d="M28.36,138.74c.62.65,1.29.33,2,.13,7.6-2.08,15.23-4,22.78-6.28,8.62-2.58,17.31-4.93,25.83-7.84,6.63-2.26,13.18-4.8,19.82-7,9.7-3.19,19.07-7.2,28.6-10.79,4.31-1.63,8.56-3.47,12.75-5.44,3.68-1.73,7.45-3.25,11.18-4.88,3.94-1.72,7.89-3.44,11.81-5.21,5.38-2.42,10.77-4.81,16.08-7.35,5-2.41,9.86-5.24,14.68-8.07,10.4-6.1,19.87-13.53,29.41-20.83,8-6.1,15.75-12.43,23.87-18.3,9.31-6.71,18.87-13.08,29.22-18.13.91-.44,1.71-.89,1.63-2.07,1.91,3.21,1.9,3.34-1.3,5-5.15,2.72-10.33,5.37-15.49,8.07-.62.32-1.37.47-1.78,1.18.56.49,1,0,1.49-.14l16.68-5.92c.15-.06.29-.13.44-.18,3.33-1.23,3.69-1,4.78,2.58-.89-1-1.81-.86-2.92-.26-5.48,2.95-10.83,6.09-16.11,9.38C258.05,40,252.62,44,247.18,48,240,53.33,233,58.82,226,64.24c-.42.33-1,.83.14,1,.08,1.2-1,1.36-1.69,1.73-18.1,9.35-36,19.15-54.49,27.71-10.24,4.74-20.27,9.87-30.51,14.58-1.66.76-3.46,1.4-4,3.46-1.42-.87-2.79-.31-4.13.2-4,1.53-8,3.14-12,4.63-4.41,1.64-8.88,3.12-13.28,4.79s-9.08,3-13.64,4.39c-4.33,1.35-8.64,2.79-13,4.16-6.45,2-13,3.72-19.53,5.53-7.36,2-14.74,4-22.18,5.76Q25.53,145,13.43,147.68a15.21,15.21,0,0,1-2.87.08c2.27-2,5.16-2.79,7.76-4.14A86.11,86.11,0,0,1,28.36,138.74Z"/><path class="cls-19" d="M226.55,26.38c-2.07,2.51-4.35,4.84-6.34,7.44a69.5,69.5,0,0,1-7.79,8.73c-3,2.82-5.94,5.78-9.15,8.41a123.12,123.12,0,0,1-12.84,9.55,104.83,104.83,0,0,1-12,6.37,96.2,96.2,0,0,1-12.46,4.91,90.82,90.82,0,0,1-18.86,4,12.66,12.66,0,0,0-6.49,2.73,194.54,194.54,0,0,1-21,13.35C112,96,104.25,99.72,96.35,103.17A148.56,148.56,0,0,1,78,109.38c-4.13,1.2-8.22,2.52-12.33,3.82-7.07,2.23-14.14,4.46-21.19,6.74-3,1-5.88,2-8.81,3.07a3.31,3.31,0,0,1-1.64.27c3.59-1.9,7.14-3.85,10.77-5.68Q63.91,108,83.06,98.38c.64-.31,1.3-.58,2-.87,4.14-1.39,8.06-3.33,12.15-4.87,8.65-3.27,17.26-6.62,26.05-9.52.53-.17,1-.39,1.59-.51,4.7-1,8.21-3,7.2-8.73,3.23-2,6.76-3.52,10.16-5.24,7-3.57,14.09-7.06,21.14-10.58a2.45,2.45,0,0,1,1.33-.46c.26,1.18-.71,1.69-1.33,2.36-3.54,3.79-7.47,7.18-11.27,10.64,18.27-4,34.3-12.63,48.67-24.43a101.68,101.68,0,0,0,14.33-14A102.92,102.92,0,0,1,226.55,26.38Z"/><path class="cls-18" d="M215,32.13c.26.09.77,0,.58.48a4,4,0,0,1-.92,1.07c-4.28,4.31-8.4,8.78-13.13,12.59A140.4,140.4,0,0,1,181.5,60a116.08,116.08,0,0,1-20.85,8.91,67.8,67.8,0,0,1-10.4,2.6c2.08-1.94,3.77-3.62,5.58-5.17a86.54,86.54,0,0,0,8.81-8.74c4.62-2.7,9.51-4.89,14.27-7.31q17.6-9,35.24-17.83A8.57,8.57,0,0,1,215,32.13Z"/><path class="cls-19" d="M37.85,197.25a10.77,10.77,0,0,0,2.81-.5c10.22-2.37,20.42-4.8,30.67-7,6.82-1.5,13.71-2.7,20.57-4a4.3,4.3,0,0,1,.72,0c-4.16,2.34-8.54,4.24-12.83,6.3q-9.8,4.69-19.65,9.28c-1.5.7-2.75,1.92-4.46,2.19-3.69.49-7.23,1.67-10.87,2.39-1.16.23-2.29.74-3.52.48C39.63,203.48,38,200.63,37.85,197.25Z"/><path class="cls-20" d="M132,73.88c1,1.89.43,3.88.34,5.82,0,.7-.81,1-1.39,1.19-1.76.72-3.51,1.5-5.33,2.07-8.8,2.79-17.44,6-26,9.4-4.36,1.71-8.95,2.87-13.07,5.2-.51.28-1,.49-1.51,0,3.14-2,6.64-3.36,10-5.05q17.83-9.06,35.7-18C131.11,74.2,131.56,74.06,132,73.88Z"/><path class="cls-21" d="M255.41,100.38c2.13-2.43,4.34-4.79,6.35-7.31a57.87,57.87,0,0,0,4.7-6c.53.74,0,1.17-.22,1.58-2,4-4,8.13-6.23,12-.33.57-1.22,1.25-.27,2.06-2.15.93-2.15.93-3.16-.92C256.28,101.25,256.12,100.59,255.41,100.38Z"/><path class="cls-22" d="M41.29,206.31c2.83-1.26,5.91-1.56,8.86-2.35,1.75-.47,3.5-1,5.27-1.29.74-.15.26.47.26.77-3.61,2.14-7.74,3.16-11.37,5.26-1.3.75-1.73.49-2.4-.87C41.67,207.34,41.5,206.82,41.29,206.31Z"/><path class="cls-23" d="M51.33,127.09l-19.7,9.85a6.45,6.45,0,0,1-.91.29c-.23-.44-.68-.47-1.09-.55A102.62,102.62,0,0,1,39.29,132c3.81-1.83,7.66-3.58,11.5-5.37C51.31,126.38,51.4,126.65,51.33,127.09Z"/><path class="cls-24" d="M6.6,142.57c.08,0,.2,0,.22.06,1.17,2,2.81,1.72,4.65,1.13A9.09,9.09,0,0,1,15.4,143a23.89,23.89,0,0,1-5.77,2.75,1.33,1.33,0,0,1-1.93-.82A9.83,9.83,0,0,1,6.6,142.57Z"/><path class="cls-19" d="M15.79,169.3l.05,2A1.31,1.31,0,0,1,15.79,169.3Z"/><path class="cls-25" d="M269.69,79.55c-2.13.48-3.91,1.81-6,2.46-.42.13-.82.47-1.38.08,2.8-1.27,5.22-3.29,8.33-3.87C270.56,78.82,270.05,79.14,269.69,79.55Z"/><path class="cls-26" d="M294.83,69.91c1.82,1.14,2,2.71,2.58,4.07A8.61,8.61,0,0,1,294.83,69.91Z"/><path class="cls-27" d="M135.39,112.73c-.3-2-.3-2,1.75-3,11.89-5.71,23.76-11.45,35.67-17.12,15.95-7.59,31.54-15.9,47.2-24.08a39.79,39.79,0,0,0,6.08-3.31l13.81-7.17c3.27-1.7,6.52-3.42,9.82-5,.79-.39,1.73-1.6,2.65-.15.56.88.18,1.42-1.59,2.43-3.34,1.9-6.69,3.77-10,5.69-13.79,7.93-27.6,15.82-41.34,23.82-5.7,3.32-11.79,5.71-17.79,8.33q-21.75,9.5-43.52,19C137.26,112.5,136.43,113.08,135.39,112.73Z"/><path class="cls-28" d="M280.24,36.35a58.71,58.71,0,0,1,4.91,10.43c.26.75-.34,1.36-.82,1.91-1.68,1.92-3.29,3.91-5.06,5.74A201.76,201.76,0,0,1,263,69.64a226.17,226.17,0,0,1-18.42,13.77,161.82,161.82,0,0,1-14.06,8.68c-2.32,1.24-4.57,2.63-6.88,3.9A169.09,169.09,0,0,1,208,103.34q-7.72,3.28-15.61,6.12c-.8.29-1.61.54-2.77.92.67-1.24,1.67-1.13,2.37-1.47,14.73-7.19,29.36-14.58,43.18-23.41,9.42-6,18.73-12.24,27.24-19.55a125.11,125.11,0,0,0,15.2-15.59c2.57-3.14,3-6.57,2.47-10.33A8.53,8.53,0,0,1,280.24,36.35Z"/><path class="cls-28" d="M191.06,64.8c3.8-2.34,7.67-4.57,11.35-7.13A130.47,130.47,0,0,0,222.18,41a78.9,78.9,0,0,0,6.68-7.83,13,13,0,0,1,4.88-4.12q17.07-8.43,34.15-16.87c.77-.37,1.85-1.43,2.49-.19.73,1.41-.81,1.56-1.67,2-8.65,4.48-17.31,8.93-26.18,13a23.13,23.13,0,0,0-8.25,6.42c-3.94,4.77-8.62,8.78-13.19,12.88-6.7,6-14.31,10.7-21.91,15.43-2.45,1.53-5.1,2.66-7.65,4-.34.29-.76.29-.95-.07S190.71,65,191.06,64.8Z"/><path class="cls-29" d="M147.37,95c-6.58,3.26-13.36,6.07-20.14,8.86-7.23,3-14.55,5.7-22,8.1-6.37,2-12.81,3.9-19.31,5.48a11.91,11.91,0,0,1-1.36.09,21.06,21.06,0,0,1,3.89-1.71q17.51-6.45,35-12.89c7.27-2.66,14.51-5.37,21.7-8.22a7.58,7.58,0,0,1,1.17-.24C146.89,94.25,147.38,94.16,147.37,95Z"/><path class="cls-30" d="M191.06,64.8c-.31.55-.32,1,.47.94-4,2-7.91,4.31-12.53,5.29C180.28,69.79,188.64,65.51,191.06,64.8Z"/><path class="cls-31" d="M147.37,95c-.21-.43-.63-.47-1-.53,2.47-1.49,5.31-2.1,7.91-3.29a9.05,9.05,0,0,1,2.71-.8A71.06,71.06,0,0,1,147.37,95Z"/><path class="cls-32" d="M51.33,127.09l-.54-.5c3-1.81,6.21-3,9.74-4.75-.55.68-.26.29-.23.61,0,.08,0,.21,0,.23Z"/></g></g></svg>